<svg id="logo" xmlns="http://www.w3.org/2000/svg" viewBox="0 0 381 414" fill="#28edff">

<path d=" M143.980026,110.821671   C130.809525,110.791443 117.955002,112.607948 105.463173,116.967369   C84.309509,124.349602 70.187042,137.632141 66.831123,160.838837   C64.647331,175.940094 66.069481,190.137680 75.024223,202.861786   C83.014809,214.215927 94.669067,220.266327 107.646339,223.949921   C118.732986,227.096878 130.111145,228.085281 141.645966,228.045715   C177.941223,227.921219 214.237854,227.876266 250.532425,228.077942   C260.932190,228.135696 266.914154,232.548523 267.157715,241.050934   C267.423584,250.331207 262.497620,256.281311 249.054626,256.020203   C169.155319,256.007233 90.160126,255.983368 11.164937,255.959503   C11.121663,221.304214 10.650033,186.641510 11.248964,151.997314   C11.483835,138.411636 13.028452,124.650803 19.409340,112.089180   C25.136524,100.814461 34.019119,92.436226 44.531723,85.961647   C67.068832,72.081337 89.766731,58.450756 112.636200,45.125378   C127.893127,36.235607 143.398514,27.735834 159.096970,19.652437   C170.342743,13.861795 182.284653,10.221603 195.318573,10.905437   C205.298294,11.429031 214.630341,14.185643 223.191589,18.800697   C246.756424,31.503649 270.129303,44.573421 293.377136,57.849995   C308.584442,66.534706 323.510834,75.719864 338.431854,84.894249   C348.612823,91.154167 357.083649,99.320450 363.344910,109.626083   C292.212891,109.984131 221.506912,109.984337 150.800949,110.034355   C148.527115,110.035957 146.253662,110.547722 143.980026,110.821671  z"/>
<path d=" M373.049561,248.112335   C372.698944,259.040619 373.025452,270.043732 371.827515,280.878326   C370.308075,294.621094 366.074860,307.372192 355.897064,317.793274   C343.122833,330.872803 327.547729,339.767273 312.105713,348.919708   C295.914948,358.515930 279.713104,368.118774 263.194885,377.129944   C246.831894,386.056488 230.451340,395.134705 213.374268,402.517456   C195.794632,410.117462 177.821838,407.173187 161.253311,398.477692   C139.855453,387.247681 118.795204,375.350861 97.850655,363.287903   C79.720833,352.846130 61.835922,341.963593 44.072926,330.906097   C33.069592,324.056488 26.810051,317.196655 20.707222,306.999878   C22.823364,306.999878 24.533194,306.999908 26.243025,306.999908   C100.053528,306.999908 173.864670,307.162628 247.674011,306.870361   C263.512665,306.807678 279.303192,304.332581 293.806610,297.520752   C312.687592,288.652924 323.007599,273.629639 325.194794,252.553284   C326.300659,241.896957 325.998627,231.687759 322.223236,221.759155   C316.099609,205.655075 303.097137,197.072510 287.318848,193.269272   C276.123474,190.570709 264.348297,189.345993 252.807785,189.184052   C216.992584,188.681442 181.165802,189.026001 145.343689,188.956299   C142.102966,188.949997 138.810944,188.586319 135.633774,187.940674   C127.966507,186.382538 123.541580,181.143555 124.005890,174.584259   C124.547325,166.935318 129.174026,162.626022 137.549850,162.012070   C138.710327,161.927017 139.881989,161.994400 141.952332,161.978790   C219.598465,161.964691 296.340729,161.962997 373.083008,161.961304   C373.083008,161.961304 373.047211,162.011124 373.026428,162.451691   C373.020264,191.298965 373.034882,219.705643 373.049561,248.112335  z"/>

</svg>

